<svg xmlns="http://www.w3.org/2000/svg" width="160" height="160" viewBox="0 0 160 160" fill="none">
    
    
    <defs>
      <radialGradient id="tn-glow" cx="50%" cy="30%" r="70%">
        <stop offset="0%" stop-color="#7EC850" stop-opacity="0.25"/>
        <stop offset="100%" stop-color="#0F1F0D" stop-opacity="0"/>
      </radialGradient>
    </defs>
    <g id="terranexa-icon-original-refinado">
      <circle cx="80" cy="80" r="70" fill="#1A3A0F"/>
      <circle cx="80" cy="80" r="70" fill="url(#tn-glow)"/>
      <rect x="50" y="36" width="60" height="10" rx="5" fill="#7EC850"/>
      <rect x="75" y="44" width="10" height="34" rx="4" fill="#7EC850"/>
      <line x1="44" y1="79" x2="116" y2="79" stroke="#A0714F" stroke-width="2" stroke-dasharray="4 3" opacity="0.7"/>
      <path d="M80 78 Q58 92 48 108" stroke="#5AAE38" stroke-width="5" stroke-linecap="round" fill="none"/>
      <path d="M80 78 Q102 92 112 108" stroke="#5AAE38" stroke-width="5" stroke-linecap="round" fill="none"/>
      <path d="M80 78 Q80 94 80 110" stroke="#5AAE38" stroke-width="5" stroke-linecap="round" fill="none"/>
      <path d="M80 78 Q70 88 68 102" stroke="#3D8A22" stroke-width="3" stroke-linecap="round" fill="none" opacity="0.6"/>
      <path d="M80 78 Q90 88 92 102" stroke="#3D8A22" stroke-width="3" stroke-linecap="round" fill="none" opacity="0.6"/>
      <circle cx="48" cy="108" r="4" fill="#E8A84C"/>
      <circle cx="112" cy="108" r="4" fill="#E8A84C"/>
      <circle cx="80" cy="110" r="4" fill="#E8A84C"/>
    </g>
    
    </svg>
