<svg xmlns="http://www.w3.org/2000/svg" viewBox="0 0 512 512" role="img" aria-label="TerraNexa">
  <defs>
    <radialGradient id="bg" cx="50%" cy="42%" r="64%">
      <stop offset="0" stop-color="#275f22"/>
      <stop offset="0.62" stop-color="#164717"/>
      <stop offset="1" stop-color="#0d2e11"/>
    </radialGradient>
    <linearGradient id="green" x1="128" y1="74" x2="376" y2="420" gradientUnits="userSpaceOnUse">
      <stop offset="0" stop-color="#8ddb55"/>
      <stop offset="1" stop-color="#38a830"/>
    </linearGradient>
    <linearGradient id="branch" x1="121" y1="248" x2="390" y2="420" gradientUnits="userSpaceOnUse">
      <stop offset="0" stop-color="#72cf45"/>
      <stop offset="1" stop-color="#3aa32f"/>
    </linearGradient>
    <linearGradient id="gold" x1="120" y1="333" x2="392" y2="425" gradientUnits="userSpaceOnUse">
      <stop offset="0" stop-color="#f7bf54"/>
      <stop offset="1" stop-color="#e7a43d"/>
    </linearGradient>
    <filter id="softShadow" x="-20%" y="-20%" width="140%" height="140%">
      <feDropShadow dx="0" dy="14" stdDeviation="14" flood-color="#000000" flood-opacity="0.22"/>
    </filter>
  </defs>
  <circle cx="256" cy="256" r="236" fill="url(#bg)"/>
  <g filter="url(#softShadow)">
    <path d="M151 114h210c15.5 0 28 12.5 28 28s-12.5 28-28 28h-76v142c0 16-13 29-29 29s-29-13-29-29V170h-76c-15.5 0-28-12.5-28-28s12.5-28 28-28Z" fill="url(#green)"/>
    <path d="M143 259h16v9h-16v-9Zm33 0h16v9h-16v-9Zm33 0h16v9h-16v-9Zm33 0h16v9h-16v-9Zm33 0h16v9h-16v-9Zm33 0h16v9h-16v-9Zm33 0h16v9h-16v-9Zm33 0h16v9h-16v-9Z" fill="#9a7a42" opacity="0.86"/>
    <path d="M256 254c-36 31-69 67-99 110" fill="none" stroke="url(#branch)" stroke-width="22" stroke-linecap="round"/>
    <path d="M256 254c36 31 69 67 99 110" fill="none" stroke="url(#branch)" stroke-width="22" stroke-linecap="round"/>
    <path d="M256 254v118" fill="none" stroke="url(#branch)" stroke-width="22" stroke-linecap="round"/>
    <path d="M256 260c-20 25-30 49-36 78" fill="none" stroke="#2b8b28" stroke-width="12" stroke-linecap="round" opacity="0.9"/>
    <path d="M256 260c20 25 30 49 36 78" fill="none" stroke="#2b8b28" stroke-width="12" stroke-linecap="round" opacity="0.9"/>
    <circle cx="145" cy="374" r="22" fill="url(#gold)"/>
    <circle cx="256" cy="389" r="22" fill="url(#gold)"/>
    <circle cx="367" cy="374" r="22" fill="url(#gold)"/>
  </g>
</svg>
